<svg width="120" height="120" viewBox="0 0 120 120" fill="none" xmlns="http://www.w3.org/2000/svg">
  <rect width="120" height="120" rx="24" fill="#07C160"/>
  <path d="M45.5 42.5C49.6421 42.5 53 39.1421 53 35C53 30.8579 49.6421 27.5 45.5 27.5C41.3579 27.5 38 30.8579 38 35C38 39.1421 41.3579 42.5 45.5 42.5Z" fill="white"/>
  <path d="M74.5 42.5C78.6421 42.5 82 39.1421 82 35C82 30.8579 78.6421 27.5 74.5 27.5C70.3579 27.5 67 30.8579 67 35C67 39.1421 70.3579 42.5 74.5 42.5Z" fill="white"/>
  <path d="M60 85C75.464 85 88 72.464 88 57C88 41.536 75.464 29 60 29C44.536 29 32 41.536 32 57C32 65.284 35.716 72.62 41.5 77.5L38 92L52.5 85.5C55.284 85.82 57.62 85 60 85Z" fill="white"/>
  <circle cx="50" cy="57" r="3" fill="#07C160"/>
  <circle cx="60" cy="57" r="3" fill="#07C160"/>
  <circle cx="70" cy="57" r="3" fill="#07C160"/>
</svg>